<svg width="24" height="24" viewBox="0 0 24 24" fill="none" xmlns="http://www.w3.org/2000/svg">
<path d="M16.5 3.9001H20.1C20.3387 3.9001 20.5676 3.99492 20.7364 4.1637C20.9052 4.33248 21 4.5614 21 4.8001V19.2001C21 19.4388 20.9052 19.6677 20.7364 19.8365C20.5676 20.0053 20.3387 20.1001 20.1 20.1001H3.9C3.66131 20.1001 3.43239 20.0053 3.2636 19.8365C3.09482 19.6677 3 19.4388 3 19.2001V4.8001C3 4.5614 3.09482 4.33248 3.2636 4.1637C3.43239 3.99492 3.66131 3.9001 3.9 3.9001H7.5V2.1001H9.3V3.9001H14.7V2.1001H16.5V3.9001ZM14.7 5.7001H9.3V7.5001H7.5V5.7001H4.8V9.3001H19.2V5.7001H16.5V7.5001H14.7V5.7001ZM19.2 11.1001H4.8V18.3001H19.2V11.1001Z" fill="white"/>
</svg>
