<svg xmlns="http://www.w3.org/2000/svg" version="1.1" xmlns:xlink="http://www.w3.org/1999/xlink" xmlns:svgjs="http://svgjs.dev/svgjs" width="40" height="40"><svg width="40" height="40" viewBox="0 0 40 40" fill="none" xmlns="http://www.w3.org/2000/svg">
<g clip-path="url(#clip0_18017_450)">
<path d="M34.142 34.1428C29.2155 39.0693 22.3576 40.8881 16.0041 39.5999C15.4318 39.4832 14.8628 39.3419 14.3004 39.1754C11.2098 38.2595 8.29711 36.582 5.85797 34.1428C-1.95266 26.3322 -1.95266 13.6693 5.85797 5.85872C8.29719 3.4195 11.2106 1.74114 14.3013 0.826061C14.8637 0.658717 15.4327 0.517467 16.0057 0.401608C22.3584 -0.887377 29.2155 0.932233 34.142 5.85872C41.9527 13.6693 41.9527 26.3322 34.142 34.1428Z" fill="#214CE7"></path>
<path d="M34.142 34.1427C29.2154 39.0693 22.3575 40.888 16.004 39.5998C15.7796 39.5541 15.555 39.5043 15.3313 39.4504C14.986 39.368 14.6416 39.2765 14.3003 39.1754C11.2097 38.2594 8.29705 36.5819 5.85791 34.1427L34.142 5.85864C34.3926 6.10927 34.6359 6.3656 34.8701 6.62599C41.9444 14.4774 41.702 26.5827 34.142 34.1427Z" fill="#214CE7"></path>
<path d="M34.142 34.1427C29.2155 39.0693 22.3576 40.888 16.0041 39.5998C15.7796 39.5541 15.5551 39.5043 15.3314 39.4504L12.0995 36.2186L12 28.2676L34.8702 6.62598C41.9445 14.4774 41.702 26.5827 34.142 34.1427Z" fill="#214CE7"></path>
<path d="M31.2245 36.4937L31.0334 36.6847C30.5461 37.0071 30.0441 37.3092 29.5281 37.5892L20.3102 20.3198L20.0922 19.9084L2.4114 10.4717L2.02039 10.2627L3.50695 8.77612L27.031 12.9696L27.1257 13.5042L31.2245 36.4937Z" fill="#EEEEEE"></path>
<path d="M31.2244 36.4936L31.0334 36.6846C30.546 37.007 30.044 37.3091 29.5281 37.5891L22.5526 24.5205L20.3102 20.3197L27.1257 13.5042L28.0996 18.9744L31.2244 36.4936Z" fill="#D2D2D3"></path>
<path d="M28.0994 18.9742L22.5529 24.5207L20.3099 20.32L27.1253 13.5046L28.0994 18.9742Z" fill="#C2C2C2"></path>
<path d="M36.5925 3.44752C35.429 2.28409 32.5164 3.31049 30.0869 5.74002C28.2851 7.54174 16.3108 18.8351 11.3542 25.6635C11.2005 25.8751 10.9556 26.0001 10.694 26.0001H5.25864C5.16849 26.0001 5.08208 26.036 5.01833 26.0996L3.72536 27.3926C3.5588 27.5592 3.60802 27.8405 3.8213 27.9406L8.86942 30.3101C9.24778 30.4878 9.55224 30.7921 9.72981 31.1705L12.0993 36.2185C12.1994 36.4317 12.4808 36.481 12.6473 36.3145L13.9403 35.0215C14.004 34.9578 14.0398 34.8713 14.0398 34.7812V29.1635C14.0398 28.9043 14.1625 28.6614 14.3709 28.5074C21.1803 23.4777 32.5072 11.7458 34.3 9.95299C36.7295 7.52354 37.7559 4.61088 36.5925 3.44752Z" fill="#EEEEEE"></path>
</g>
<defs>
<clipPath id="SvgjsClipPath1010">
<rect width="40" height="40" fill="white" transform="translate(0 0.000488281)"></rect>
</clipPath>
</defs>
</svg><style>@media (prefers-color-scheme: light) { :root { filter: none; } }
@media (prefers-color-scheme: dark) { :root { filter: none; } }
</style></svg>