<svg width="40" height="40" viewBox="0 0 40 40" fill="none" xmlns="http://www.w3.org/2000/svg">
<g clip-path="url(#clip0_18067_190)">
<path d="M34.142 34.1428C29.2155 39.0693 22.3576 40.8881 16.0041 39.5999C15.4318 39.4832 14.8628 39.3419 14.3004 39.1754C11.2098 38.2595 8.29711 36.582 5.85797 34.1428C-1.95266 26.3322 -1.95266 13.6693 5.85797 5.85872C8.29719 3.4195 11.2106 1.74114 14.3013 0.826061C14.8637 0.658717 15.4327 0.517467 16.0057 0.401608C22.3584 -0.887377 29.2155 0.932233 34.142 5.85872C41.9527 13.6693 41.9527 26.3322 34.142 34.1428Z" fill="#214CE7"/>
<path d="M34.142 34.1427C29.2154 39.0693 22.3575 40.888 16.004 39.5998C15.7796 39.5541 15.555 39.5043 15.3313 39.4504C14.986 39.368 14.6416 39.2765 14.3003 39.1754C11.2097 38.2594 8.29705 36.5819 5.85791 34.1427L34.142 5.85864C34.3926 6.10927 34.6359 6.3656 34.8701 6.62599C41.9444 14.4774 41.702 26.5827 34.142 34.1427Z" fill="#214CE7"/>
<path d="M34.142 34.1427C29.2155 39.0693 22.3576 40.888 16.0041 39.5998C15.7796 39.5541 15.5551 39.5043 15.3314 39.4504L12.0995 36.2186L12 28.2676L34.8702 6.62598C41.9445 14.4774 41.702 26.5827 34.142 34.1427Z" fill="#214CE7"/>
<path d="M31.2246 36.4937L31.0336 36.6847C30.5462 37.0071 30.0442 37.3092 29.5282 37.5892L20.3103 20.3198L20.0923 19.9084L2.41152 10.4717L2.02051 10.2627L3.50707 8.77612L27.0311 12.9696L27.1258 13.5042L31.2246 36.4937Z" fill="#EEEEEE"/>
<path d="M31.2243 36.4936L31.0333 36.6846C30.5459 37.007 30.0439 37.3091 29.5279 37.5891L22.5525 24.5205L20.3101 20.3197L27.1256 13.5042L28.0995 18.9744L31.2243 36.4936Z" fill="#D2D2D3"/>
<path d="M28.0995 18.9742L22.553 24.5207L20.3101 20.32L27.1254 13.5046L28.0995 18.9742Z" fill="#C2C2C2"/>
<path d="M36.5922 3.44752C35.4288 2.28409 32.5161 3.31049 30.0867 5.74002C28.2849 7.54174 16.3106 18.8351 11.3539 25.6635C11.2003 25.8751 10.9554 26.0001 10.6938 26.0001H5.2584C5.16824 26.0001 5.08184 26.036 5.01809 26.0996L3.72512 27.3926C3.55855 27.5592 3.60777 27.8405 3.82105 27.9406L8.86918 30.3101C9.24754 30.4878 9.55199 30.7921 9.72957 31.1705L12.0991 36.2185C12.1992 36.4317 12.4805 36.481 12.6471 36.3145L13.94 35.0215C14.0038 34.9578 14.0396 34.8713 14.0396 34.7812V29.1635C14.0396 28.9043 14.1622 28.6614 14.3707 28.5074C21.18 23.4777 32.5069 11.7458 34.2998 9.95299C36.7293 7.52354 37.7557 4.61088 36.5922 3.44752Z" fill="#EEEEEE"/>
</g>
<defs>
<clipPath id="clip0_18067_190">
<rect width="40" height="40" fill="white" transform="translate(0 0.000488281)"/>
</clipPath>
</defs>
</svg>
