<svg width="36" height="36" viewBox="0 0 36 36" fill="none" xmlns="http://www.w3.org/2000/svg">
<rect width="36" height="36.0008" rx="18" fill="#214CE7"/>
<path d="M16.8836 23.4816C18.3475 23.4813 19.7693 22.9913 20.9224 22.0894L24.548 25.715L25.7142 24.5488L22.0886 20.9233C22.9909 19.77 23.4813 18.3479 23.4816 16.8836C23.4816 13.2457 20.5216 10.2856 16.8836 10.2856C13.2457 10.2856 10.2856 13.2457 10.2856 16.8836C10.2856 20.5216 13.2457 23.4816 16.8836 23.4816ZM16.8836 11.9351C19.6127 11.9351 21.8321 14.1545 21.8321 16.8836C21.8321 19.6127 19.6127 21.8321 16.8836 21.8321C14.1545 21.8321 11.9351 19.6127 11.9351 16.8836C11.9351 14.1545 14.1545 11.9351 16.8836 11.9351Z" fill="white"/>
</svg>
